<svg width="1133" height="223" viewBox="0 0 1133 223" fill="none" xmlns="http://www.w3.org/2000/svg">
<path d="M86.9991 26.5089L162.183 155.509H11.8151L86.9991 26.5089Z" fill="#077644"/>
<mask id="mask0_4_112" style="mask-type:alpha" maskUnits="userSpaceOnUse" x="11" y="26" width="151" height="129">
<path d="M86.8151 26L161.999 155H11.631L86.8151 26Z" fill="#3038FF"/>
</mask>
<g mask="url(#mask0_4_112)">
<rect x="87.3287" y="26" width="79.6233" height="130.272" fill="#DEB8A7"/>
</g>
<ellipse cx="220.337" cy="91.057" rx="64.1192" ry="63.5172" fill="#D9D9D9"/>
<mask id="mask1_4_112" style="mask-type:alpha" maskUnits="userSpaceOnUse" x="155" y="27" width="129" height="128">
<ellipse cx="219.73" cy="91.1493" rx="64.2123" ry="63.6095" fill="#3038FF"/>
</mask>
<g mask="url(#mask1_4_112)">
<rect x="221.785" y="28.0487" width="62.6712" height="70.2249" fill="#005B32"/>
<rect x="153.463" y="97.7646" width="67.8082" height="79.3846" fill="#DEB8A7"/>
<rect x="153.976" y="18.3801" width="67.8082" height="79.3846" fill="#3038FF"/>
<mask id="mask2_4_112" style="mask-type:alpha" maskUnits="userSpaceOnUse" x="156" y="27" width="129" height="128">
<ellipse cx="220.244" cy="91.1493" rx="64.2123" ry="63.6095" fill="#D9D9D9"/>
</mask>
<g mask="url(#mask2_4_112)">
<rect x="221.271" y="95.7292" width="77.5685" height="62.0828" fill="#3038FF"/>
</g>
</g>
<path d="M310.84 160L362.36 38.72H363.48L415 160H393.56L357.24 68L370.68 58.88L329.24 160H310.84ZM343.16 116.8H383L389.4 132.64H337.56L343.16 116.8ZM451.675 43.52C458.075 43.52 463.942 44.3733 469.275 46.08C474.608 47.68 479.142 50.08 482.875 53.28C486.608 56.48 489.488 60.4267 491.515 65.12C493.648 69.7067 494.715 74.9867 494.715 80.96C494.715 85.5467 494.022 90.1333 492.635 94.72C491.248 99.3067 488.955 103.467 485.755 107.2C482.662 110.933 478.555 113.92 473.435 116.16C468.315 118.4 461.968 119.52 454.395 119.52H437.595V160H418.875V43.52H451.675ZM454.235 101.6C458.395 101.6 461.862 100.96 464.635 99.68C467.408 98.2933 469.542 96.5867 471.035 94.56C472.635 92.5333 473.755 90.4 474.395 88.16C475.142 85.8133 475.515 83.6267 475.515 81.6C475.515 79.68 475.195 77.6 474.555 75.36C473.915 73.0133 472.848 70.8267 471.355 68.8C469.862 66.6667 467.728 64.9067 464.955 63.52C462.288 62.1333 458.928 61.44 454.875 61.44H437.595V101.6H454.235ZM474.395 112.64L504.155 160H482.555L452.155 113.12L474.395 112.64ZM510.063 43.52H528.783V160H510.063V43.52ZM532.684 160L584.204 38.72H585.324L636.844 160H615.404L579.084 68L592.524 58.88L551.084 160H532.684ZM565.004 116.8H604.844L611.244 132.64H559.404L565.004 116.8ZM668.769 101.92C668.769 93.8133 670.315 86.1867 673.409 79.04C676.502 71.8933 680.769 65.5467 686.209 60C691.649 54.4533 697.942 50.1333 705.089 47.04C712.342 43.84 720.075 42.24 728.289 42.24C736.395 42.24 744.022 43.84 751.169 47.04C758.422 50.1333 764.769 54.4533 770.209 60C775.755 65.5467 780.075 71.8933 783.169 79.04C786.369 86.1867 787.969 93.8133 787.969 101.92C787.969 110.133 786.369 117.813 783.169 124.96C780.075 132.107 775.755 138.453 770.209 144C764.769 149.44 758.422 153.707 751.169 156.8C744.022 159.787 736.395 161.28 728.289 161.28C719.969 161.28 712.235 159.787 705.089 156.8C697.942 153.707 691.649 149.493 686.209 144.16C680.769 138.72 676.502 132.427 673.409 125.28C670.315 118.027 668.769 110.24 668.769 101.92ZM687.969 101.92C687.969 107.68 688.982 113.067 691.009 118.08C693.142 123.093 696.075 127.52 699.809 131.36C703.542 135.093 707.862 138.027 712.769 140.16C717.675 142.293 723.009 143.36 728.769 143.36C734.315 143.36 739.489 142.293 744.289 140.16C749.195 138.027 753.462 135.093 757.089 131.36C760.715 127.52 763.542 123.093 765.569 118.08C767.702 113.067 768.769 107.68 768.769 101.92C768.769 96.0533 767.702 90.6133 765.569 85.6C763.435 80.5867 760.555 76.16 756.929 72.32C753.302 68.48 749.035 65.4933 744.129 63.36C739.222 61.2267 733.942 60.16 728.289 60.16C722.635 60.16 717.355 61.2267 712.449 63.36C707.542 65.4933 703.222 68.48 699.489 72.32C695.862 76.16 693.035 80.64 691.009 85.76C688.982 90.7733 687.969 96.16 687.969 101.92ZM857.964 67.2C853.804 65.0667 849.377 63.2533 844.684 61.76C839.99 60.16 835.51 59.36 831.244 59.36C825.484 59.36 820.897 60.64 817.484 63.2C814.177 65.76 812.524 69.28 812.524 73.76C812.524 76.96 813.697 79.7867 816.044 82.24C818.39 84.5867 821.377 86.6667 825.004 88.48C828.63 90.1867 832.47 91.84 836.524 93.44C840.044 94.72 843.51 96.2667 846.924 98.08C850.444 99.7867 853.59 101.92 856.364 104.48C859.137 107.04 861.324 110.24 862.924 114.08C864.63 117.813 865.484 122.453 865.484 128C865.484 134.08 863.937 139.68 860.844 144.8C857.75 149.813 853.324 153.813 847.564 156.8C841.804 159.787 834.764 161.28 826.444 161.28C821.644 161.28 816.897 160.747 812.204 159.68C807.617 158.613 803.244 157.173 799.084 155.36C794.924 153.44 791.084 151.307 787.564 148.96L795.884 134.4C798.444 136.32 801.377 138.08 804.684 139.68C807.99 141.28 811.404 142.56 814.924 143.52C818.444 144.373 821.75 144.8 824.844 144.8C828.15 144.8 831.404 144.267 834.604 143.2C837.91 142.133 840.63 140.373 842.764 137.92C845.004 135.467 846.124 132.213 846.124 128.16C846.124 124.853 845.164 122.027 843.244 119.68C841.324 117.333 838.817 115.307 835.724 113.6C832.737 111.787 829.43 110.187 825.804 108.8C822.177 107.413 818.444 105.867 814.604 104.16C810.87 102.453 807.404 100.373 804.204 97.92C801.004 95.36 798.39 92.2667 796.364 88.64C794.337 85.0133 793.324 80.5333 793.324 75.2C793.324 68.8 794.817 63.2533 797.804 58.56C800.79 53.8667 804.897 50.1333 810.124 47.36C815.457 44.5867 821.59 43.0933 828.524 42.88C836.737 42.88 843.724 43.8933 849.484 45.92C855.35 47.84 860.524 50.1867 865.004 52.96L857.964 67.2ZM873.969 43.52H892.689V142.08H950.129V160H873.969V43.52ZM948.894 101.92C948.894 93.8133 950.44 86.1867 953.534 79.04C956.627 71.8933 960.894 65.5467 966.334 60C971.774 54.4533 978.067 50.1333 985.214 47.04C992.467 43.84 1000.2 42.24 1008.41 42.24C1016.52 42.24 1024.15 43.84 1031.29 47.04C1038.55 50.1333 1044.89 54.4533 1050.33 60C1055.88 65.5467 1060.2 71.8933 1063.29 79.04C1066.49 86.1867 1068.09 93.8133 1068.09 101.92C1068.09 110.133 1066.49 117.813 1063.29 124.96C1060.2 132.107 1055.88 138.453 1050.33 144C1044.89 149.44 1038.55 153.707 1031.29 156.8C1024.15 159.787 1016.52 161.28 1008.41 161.28C1000.09 161.28 992.36 159.787 985.214 156.8C978.067 153.707 971.774 149.493 966.334 144.16C960.894 138.72 956.627 132.427 953.534 125.28C950.44 118.027 948.894 110.24 948.894 101.92ZM968.094 101.92C968.094 107.68 969.107 113.067 971.134 118.08C973.267 123.093 976.2 127.52 979.934 131.36C983.667 135.093 987.987 138.027 992.894 140.16C997.8 142.293 1003.13 143.36 1008.89 143.36C1014.44 143.36 1019.61 142.293 1024.41 140.16C1029.32 138.027 1033.59 135.093 1037.21 131.36C1040.84 127.52 1043.67 123.093 1045.69 118.08C1047.83 113.067 1048.89 107.68 1048.89 101.92C1048.89 96.0533 1047.83 90.6133 1045.69 85.6C1043.56 80.5867 1040.68 76.16 1037.05 72.32C1033.43 68.48 1029.16 65.4933 1024.25 63.36C1019.35 61.2267 1014.07 60.16 1008.41 60.16C1002.76 60.16 997.48 61.2267 992.574 63.36C987.667 65.4933 983.347 68.48 979.614 72.32C975.987 76.16 973.16 80.64 971.134 85.76C969.107 90.7733 968.094 96.16 968.094 101.92Z" fill="#3038FF"/>
</svg>
